<?xml version="1.0" encoding="UTF-8" standalone="no"?>
<svg
   xmlns:osb="http://www.openswatchbook.org/uri/2009/osb"
   xmlns:dc="http://purl.org/dc/elements/1.1/"
   xmlns:cc="http://creativecommons.org/ns#"
   xmlns:rdf="http://www.w3.org/1999/02/22-rdf-syntax-ns#"
   xmlns:svg="http://www.w3.org/2000/svg"
   xmlns="http://www.w3.org/2000/svg"
   xmlns:xlink="http://www.w3.org/1999/xlink"
   xmlns:sodipodi="http://sodipodi.sourceforge.net/DTD/sodipodi-0.dtd"
   xmlns:inkscape="http://www.inkscape.org/namespaces/inkscape"
   inkscape:export-ydpi="96"
   inkscape:export-xdpi="96"
   inkscape:export-filename="C:\Users\athen\Documents\GitHub\StarryNight\night\clouds.png"
   sodipodi:docname="clouds.svg"
   inkscape:version="1.0 (4035a4fb49, 2020-05-01)"
   id="svg8"
   version="1.1"
   viewBox="0 0 210 297"
   height="297mm"
   width="210mm">
  <defs
     id="defs2">
    <linearGradient
       id="linearGradient3519"
       inkscape:collect="always">
      <stop
         id="stop3515"
         offset="0"
         style="stop-color:#cd57c1;stop-opacity:1;" />
      <stop
         id="stop3517"
         offset="1"
         style="stop-color:#cd57c1;stop-opacity:0;" />
    </linearGradient>
    <linearGradient
       id="linearGradient2949"
       inkscape:collect="always">
      <stop
         id="stop2945"
         offset="0"
         style="stop-color:#f69e92;stop-opacity:1;" />
      <stop
         id="stop2947"
         offset="1"
         style="stop-color:#f69e92;stop-opacity:0;" />
    </linearGradient>
    <linearGradient
       id="linearGradient2901"
       inkscape:collect="always">
      <stop
         id="stop2897"
         offset="0"
         style="stop-color:#f67292;stop-opacity:1;" />
      <stop
         id="stop2899"
         offset="1"
         style="stop-color:#f67292;stop-opacity:0;" />
    </linearGradient>
    <linearGradient
       osb:paint="solid"
       id="linearGradient2863">
      <stop
         id="stop2861"
         offset="0"
         style="stop-color:#e8168e;stop-opacity:1;" />
    </linearGradient>
    <radialGradient
       gradientUnits="userSpaceOnUse"
       gradientTransform="matrix(1,0,0,0.39207274,-19.941502,83.142497)"
       r="70.965421"
       fy="148.34122"
       fx="140.03663"
       cy="148.34122"
       cx="140.03663"
       id="radialGradient2951"
       xlink:href="#linearGradient2949"
       inkscape:collect="always" />
    <linearGradient
       gradientTransform="translate(-11.718599,4.9148033)"
       gradientUnits="userSpaceOnUse"
       y2="115.53891"
       x2="150.68985"
       y1="116.15897"
       x1="37.833252"
       id="linearGradient2953"
       xlink:href="#linearGradient2901"
       inkscape:collect="always" />
    <filter
       height="1.2620473"
       y="-0.13102367"
       width="1.1027417"
       x="-0.051370831"
       id="filter3101"
       style="color-interpolation-filters:sRGB"
       inkscape:collect="always">
      <feGaussianBlur
         id="feGaussianBlur3103"
         stdDeviation="3.0379606"
         inkscape:collect="always" />
    </filter>
    <filter
       height="1.1064499"
       y="-0.053224955"
       width="1.0417361"
       x="-0.020868054"
       id="filter3157"
       style="color-interpolation-filters:sRGB"
       inkscape:collect="always">
      <feGaussianBlur
         id="feGaussianBlur3159"
         stdDeviation="1.2340919"
         inkscape:collect="always" />
    </filter>
    <radialGradient
       gradientUnits="userSpaceOnUse"
       gradientTransform="matrix(0.97912331,-0.28568254,0.09449744,0.63974465,-2.8044425,71.928197)"
       r="72.34127"
       fy="71.484428"
       fx="189.23753"
       cy="71.484428"
       cx="189.23753"
       id="radialGradient3521"
       xlink:href="#linearGradient3519"
       inkscape:collect="always" />
    <filter
       height="1.1916635"
       y="-0.095831725"
       width="1.075146"
       x="-0.037573007"
       id="filter3527"
       style="color-interpolation-filters:sRGB"
       inkscape:collect="always">
      <feGaussianBlur
         id="feGaussianBlur3529"
         stdDeviation="2.2219869"
         inkscape:collect="always" />
    </filter>
  </defs>
  <sodipodi:namedview
     inkscape:window-maximized="1"
     inkscape:window-y="-6"
     inkscape:window-x="-6"
     inkscape:window-height="850"
     inkscape:window-width="1368"
     showgrid="false"
     inkscape:document-rotation="0"
     inkscape:current-layer="layer1"
     inkscape:document-units="mm"
     inkscape:cy="453.98216"
     inkscape:cx="332.54143"
     inkscape:zoom="0.67666667"
     inkscape:pageshadow="2"
     inkscape:pageopacity="0.0"
     borderopacity="1.0"
     bordercolor="#666666"
     pagecolor="#ffffff"
     id="base" />
  <metadata
     id="metadata5">
    <rdf:RDF>
      <cc:Work
         rdf:about="">
        <dc:format>image/svg+xml</dc:format>
        <dc:type
           rdf:resource="http://purl.org/dc/dcmitype/StillImage" />
        <dc:title></dc:title>
      </cc:Work>
    </rdf:RDF>
  </metadata>
  <g
     id="layer1"
     inkscape:groupmode="layer"
     inkscape:label="Layer 1">
    <path
       transform="matrix(0.82126064,0,0,0.79707394,-0.94259262,17.325677)"
       sodipodi:nodetypes="cccccccccccsc"
       id="path885"
       d="m 64.619569,95.539236 c 7.97009,-2.26439 13.846465,-6.072544 32.970466,-0.11281 8.271245,2.324746 7.173985,7.607094 8.942325,11.984764 18.04306,-3.73216 22.67501,1.66442 30.13712,5.13457 11.71341,7.93513 9.67744,16.07532 -2.64623,24.36892 -9.83153,3.92781 -22.03284,8.37957 -40.127165,0.56345 -11.094739,6.07826 -19.515721,17.13421 -40.466111,4.86434 -13.589376,-1.26482 -23.394201,-3.88054 -27.003612,-8.70773 -17.3652183,2.63228 -21.4030143,-4.57063 -19.6115513,-12.53259 -8.726854,-7.67284 -3.466927,-12.67455 9.4361643,-16.21658 l 22.80703,-0.60075 c 2.456726,-4.0481 5.870194,-6.607332 10.044066,-7.983234 4.403108,-1.45144 9.652439,-1.58599 15.517498,-0.76235 z"
       style="fill:url(#linearGradient2953);fill-opacity:1;stroke:#000000;stroke-width:0;stroke-linecap:butt;stroke-linejoin:miter;stroke-miterlimit:4;stroke-dasharray:none;stroke-opacity:1;filter:url(#filter3101)" />
    <path
       transform="matrix(0.73996438,0,0,0.82033226,3.4010644,14.01503)"
       style="opacity:0.9977;fill:url(#radialGradient2951);fill-opacity:1;stroke:#000000;stroke-width:0;stroke-linecap:butt;stroke-linejoin:miter;stroke-miterlimit:4;stroke-dasharray:none;stroke-opacity:1;filter:url(#filter3157)"
       d="m 111.23472,116.77957 c 7.9701,-2.26439 13.84645,-6.07254 32.97046,-0.11281 8.27126,2.32472 7.174,7.60706 8.94234,11.98475 18.04306,-3.73218 22.67501,1.66442 30.13712,5.13457 11.71341,7.93513 9.67744,16.07531 -2.64623,24.36891 -9.83153,3.92782 -22.03284,8.37958 -40.12719,0.56345 -11.09472,6.07827 -19.5157,17.13421 -40.46609,4.86434 -13.589372,-1.26482 -23.394194,-3.88054 -27.003604,-8.70772 -17.365218,2.63227 -21.403015,-4.57064 -19.611552,-12.53259 -8.726853,-7.67285 -3.466928,-12.67455 9.436165,-16.21659 l 22.807029,-0.60076 c 2.456727,-4.0481 5.870197,-6.60732 10.044067,-7.9832 4.403105,-1.45144 9.652435,-1.58599 15.517485,-0.76235 z"
       id="path885-3"
       sodipodi:nodetypes="cccccccccccsc" />
    <path
       transform="matrix(1.0295656,0,0,0.73255049,-54.103214,30.488724)"
       sodipodi:nodetypes="cccccccccccsc"
       id="path885-3-2"
       d="m 179.99736,33.736993 c 7.9701,-2.26439 13.84645,-6.07254 32.97046,-0.11281 8.27126,2.32472 7.174,7.60706 8.94234,11.98475 18.04306,-3.73218 22.67501,1.66442 30.13712,5.13457 11.71341,7.93513 9.67744,16.07531 -2.64623,24.36891 -9.83153,3.92782 -22.03284,8.37958 -40.12719,0.56345 -11.09472,6.07827 -19.5157,17.13421 -40.4661,4.86434 -13.58937,-1.26482 -23.39419,-3.88054 -27.0036,-8.70772 -17.36522,2.63227 -21.40302,-4.57064 -19.61155,-12.53259 -8.72686,-7.67285 -3.46693,-12.67455 9.43616,-16.21659 l 22.80703,-0.60076 c 2.45672,-4.0481 5.87019,-6.60732 10.04406,-7.9832 4.40311,-1.45144 9.65244,-1.58599 15.5175,-0.76235 z"
       style="opacity:0.9977;fill:url(#radialGradient3521);fill-opacity:1;stroke:#000000;stroke-width:0;stroke-linecap:butt;stroke-linejoin:miter;stroke-miterlimit:4;stroke-dasharray:none;stroke-opacity:1;filter:url(#filter3527)" />
  </g>
</svg>
