<?xml version="1.0" encoding="UTF-8" standalone="no"?>
<svg
   xmlns:dc="http://purl.org/dc/elements/1.1/"
   xmlns:cc="http://creativecommons.org/ns#"
   xmlns:rdf="http://www.w3.org/1999/02/22-rdf-syntax-ns#"
   xmlns:svg="http://www.w3.org/2000/svg"
   xmlns="http://www.w3.org/2000/svg"
   xmlns:xlink="http://www.w3.org/1999/xlink"
   xmlns:sodipodi="http://sodipodi.sourceforge.net/DTD/sodipodi-0.dtd"
   xmlns:inkscape="http://www.inkscape.org/namespaces/inkscape"
   width="210mm"
   height="297mm"
   viewBox="0 0 210 297"
   version="1.1"
   id="svg8"
   inkscape:export-filename="C:\Users\athen\Documents\GitHub\StarryNight\night\brightplanet1.png"
   inkscape:export-xdpi="96"
   inkscape:export-ydpi="96"
   inkscape:version="1.0 (4035a4fb49, 2020-05-01)"
   sodipodi:docname="brightplanet1.svg">
  <defs
     id="defs2">
    <linearGradient
       id="linearGradient919"
       inkscape:collect="always">
      <stop
         id="stop915"
         offset="0"
         style="stop-color:#4c8f84;stop-opacity:1" />
      <stop
         id="stop917"
         offset="1"
         style="stop-color:#4ec10b;stop-opacity:0" />
    </linearGradient>
    <linearGradient
       inkscape:collect="always"
       id="linearGradient907">
      <stop
         style="stop-color:#487acd;stop-opacity:1"
         offset="0"
         id="stop903" />
      <stop
         style="stop-color:#48b2c8;stop-opacity:0"
         offset="1"
         id="stop905" />
    </linearGradient>
    <linearGradient
       inkscape:collect="always"
       id="linearGradient897">
      <stop
         style="stop-color:#2c9980;stop-opacity:1"
         offset="0"
         id="stop893" />
      <stop
         style="stop-color:#e89a80;stop-opacity:0"
         offset="1"
         id="stop895" />
    </linearGradient>
    <linearGradient
       inkscape:collect="always"
       id="linearGradient851">
      <stop
         style="stop-color:#007d84;stop-opacity:1"
         offset="0"
         id="stop847" />
      <stop
         style="stop-color:#4ec10b;stop-opacity:0"
         offset="1"
         id="stop849" />
    </linearGradient>
    <linearGradient
       inkscape:collect="always"
       id="linearGradient843">
      <stop
         style="stop-color:#008080;stop-opacity:1;"
         offset="0"
         id="stop839" />
      <stop
         style="stop-color:#00d080;stop-opacity:0"
         offset="1"
         id="stop841" />
    </linearGradient>
    <linearGradient
       inkscape:collect="always"
       xlink:href="#linearGradient843"
       id="linearGradient845"
       x1="43.385311"
       y1="124.28391"
       x2="176.5591"
       y2="75.871338"
       gradientUnits="userSpaceOnUse" />
    <linearGradient
       inkscape:collect="always"
       xlink:href="#linearGradient851"
       id="linearGradient853"
       x1="91.156837"
       y1="163.25362"
       x2="203.03113"
       y2="65.190948"
       gradientUnits="userSpaceOnUse" />
    <linearGradient
       inkscape:collect="always"
       xlink:href="#linearGradient897"
       id="linearGradient899"
       x1="160.20592"
       y1="83.410545"
       x2="184.85344"
       y2="84.995003"
       gradientUnits="userSpaceOnUse"
       gradientTransform="matrix(0.87555854,0,0,0.83357911,-38.083193,26.730024)" />
    <linearGradient
       inkscape:collect="always"
       xlink:href="#linearGradient907"
       id="linearGradient909"
       x1="115.46532"
       y1="180.65628"
       x2="192.53429"
       y2="107.7308"
       gradientUnits="userSpaceOnUse" />
    <linearGradient
       inkscape:collect="always"
       xlink:href="#linearGradient919"
       id="linearGradient913"
       x1="66.410881"
       y1="183.60654"
       x2="123.83675"
       y2="157.23752"
       gradientUnits="userSpaceOnUse" />
  </defs>
  <sodipodi:namedview
     id="base"
     pagecolor="#ffffff"
     bordercolor="#666666"
     borderopacity="1.0"
     inkscape:pageopacity="0.0"
     inkscape:pageshadow="2"
     inkscape:zoom="0.46337365"
     inkscape:cx="410.90458"
     inkscape:cy="592.99204"
     inkscape:document-units="mm"
     inkscape:current-layer="layer2"
     inkscape:document-rotation="0"
     showgrid="false"
     showguides="false"
     inkscape:window-width="1368"
     inkscape:window-height="850"
     inkscape:window-x="-6"
     inkscape:window-y="-6"
     inkscape:window-maximized="1" />
  <metadata
     id="metadata5">
    <rdf:RDF>
      <cc:Work
         rdf:about="">
        <dc:format>image/svg+xml</dc:format>
        <dc:type
           rdf:resource="http://purl.org/dc/dcmitype/StillImage" />
        <dc:title />
      </cc:Work>
    </rdf:RDF>
  </metadata>
  <g
     style="display:inline"
     inkscape:groupmode="layer"
     id="layer2"
     inkscape:label="Layer 2">
    <circle
       r="66.996857"
       cy="135.90656"
       cx="111.8743"
       id="path835-5"
       style="opacity:0.529032;fill:#f9f9f9;fill-opacity:1;stroke:#ffe6ff;stroke-width:0" />
  </g>
  <g
     inkscape:label="Layer 1"
     inkscape:groupmode="layer"
     id="layer1"
     style="display:inline">
    <circle
       style="opacity:0.529032;fill:url(#linearGradient853);fill-opacity:1;stroke:#ffe6ff;stroke-width:0"
       id="path835"
       cx="112.31251"
       cy="136.1423"
       r="66.996857" />
    <path
       style="fill:url(#linearGradient845);fill-opacity:1;stroke:#000000;stroke-width:0;stroke-linecap:butt;stroke-linejoin:miter;stroke-miterlimit:4;stroke-dasharray:none;stroke-opacity:1"
       d="m 58.699478,95.921852 c 0,0 18.067374,4.805818 27.208931,4.074434 15.123261,-1.209967 28.752751,-9.742816 43.368551,-13.811641 7.0684,-1.967739 21.40805,-5.118941 21.40805,-5.118941 0,0 8.61455,6.898226 10.70519,9.252769 2.20994,2.488906 5.39911,6.713857 6.89542,8.94714 1.36002,2.029867 3.07705,5.045287 4.40621,7.820037 1.50203,3.13562 0,0 0,0 0,0 -14.77598,5.50973 -33.87403,6.44843 -12.61586,0.62009 -45.537388,10.44089 -60.665921,9.73447 -15.128531,-0.70641 -28.965679,-9.69569 -28.965679,-9.69569 0,0 3.424316,-8.40864 5.421085,-11.76367 1.962569,-3.297572 4.092193,-5.887338 4.092193,-5.887338 z"
       id="path837"
       sodipodi:nodetypes="caacssscszcsc" />
    <ellipse
       style="opacity:0.529032;fill:#00ffff;fill-opacity:0;stroke:#ffe6ff;stroke-width:0;stroke-miterlimit:4;stroke-dasharray:none"
       id="path881"
       cx="139.35947"
       cy="122.64738"
       rx="7.0439372"
       ry="4.1434927" />
    <ellipse
       style="opacity:0.846154;fill:url(#linearGradient899);fill-opacity:1;stroke:#ffe6ff;stroke-width:0;stroke-miterlimit:4;stroke-dasharray:none"
       id="path891"
       cx="110.05481"
       cy="96.153984"
       rx="11.867585"
       ry="4.1319513"
       transform="matrix(0.93152502,0.36367724,-0.44279284,0.89662395,0,0)" />
    <path
       style="fill:url(#linearGradient909);fill-opacity:1;stroke:#000000;stroke-width:0;stroke-linecap:butt;stroke-linejoin:miter;stroke-miterlimit:4;stroke-dasharray:none;stroke-opacity:1"
       d="m 175.47523,113.5314 c 0,0 -57.76748,15.26956 -66.71801,29.25896 -8.950538,13.9894 -9.036391,22.22906 -1.21935,32.74341 3.4387,4.62524 15.24822,8.0942 25.68136,10.18737 10.43314,2.09317 24.77733,-0.41055 24.77733,-0.41055 0,0 5.31236,-5.32326 7.62364,-8.45486 2.31127,-3.1316 6.53701,-10.53005 6.53701,-10.53005 0,0 -35.88644,3.98862 -40.79343,-2.53588 -4.90699,-6.5245 -3.52891,-8.10493 2.16535,-16.20869 5.69426,-8.10376 45.63443,-15.19281 45.63443,-15.19281 0,0 -0.85451,-7.5097 -1.69683,-11.33779 -0.71267,-3.23884 -1.9915,-7.51911 -1.9915,-7.51911 z"
       id="path901"
       sodipodi:nodetypes="czszczczzcsc" />
    <path
       style="fill:url(#linearGradient913);fill-opacity:1;stroke:#000000;stroke-width:0;stroke-linecap:butt;stroke-linejoin:miter;stroke-miterlimit:4;stroke-dasharray:none;stroke-opacity:1"
       d="m 45.317504,132.99773 c 0,0 20.382979,15.61265 32.295519,27.22593 11.912539,11.61329 31.639087,42.82914 31.639087,42.82914 -3.64089,-0.36046 -4.69458,0.16835 -15.757254,-2.66706 -5.987613,-1.44788 -12.351462,-5.08913 -12.351462,-5.08913 0,0 -2.250378,-19.89201 -10.66397,-29.1458 -8.413592,-9.2538 -22.975038,-13.11782 -22.975038,-13.11782 0,0 -0.70215,-2.44118 -0.94917,-3.68548 -0.439533,-2.21402 -0.758328,-4.94788 -0.944151,-6.70555 -0.338139,-3.19841 -0.293561,-9.64423 -0.293561,-9.64423 z"
       id="path911"
       sodipodi:nodetypes="czccczcasc" />
  </g>
</svg>
