<?xml version="1.0" encoding="UTF-8" standalone="no"?>
<svg
   xmlns:dc="http://purl.org/dc/elements/1.1/"
   xmlns:cc="http://creativecommons.org/ns#"
   xmlns:rdf="http://www.w3.org/1999/02/22-rdf-syntax-ns#"
   xmlns:svg="http://www.w3.org/2000/svg"
   xmlns="http://www.w3.org/2000/svg"
   xmlns:sodipodi="http://sodipodi.sourceforge.net/DTD/sodipodi-0.dtd"
   xmlns:inkscape="http://www.inkscape.org/namespaces/inkscape"
   inkscape:export-ydpi="96"
   inkscape:export-xdpi="96"
   inkscape:export-filename="C:\Users\athen\Documents\GitHub\StarryNight\night\stars.png"
   width="210mm"
   height="297mm"
   viewBox="0 0 210 297"
   version="1.1"
   id="svg8"
   inkscape:version="1.0 (4035a4fb49, 2020-05-01)"
   sodipodi:docname="stars.svg">
  <defs
     id="defs2">
    <filter
       inkscape:collect="always"
       style="color-interpolation-filters:sRGB"
       id="filter1436"
       x="-2.264179e-05"
       width="1.0000453"
       y="-3.2241463e-05"
       height="1.0000645">
      <feGaussianBlur
         inkscape:collect="always"
         stdDeviation="0.0017149307"
         id="feGaussianBlur1438" />
    </filter>
  </defs>
  <sodipodi:namedview
     id="base"
     pagecolor="#ffffff"
     bordercolor="#666666"
     borderopacity="1.0"
     inkscape:pageopacity="0.0"
     inkscape:pageshadow="2"
     inkscape:zoom="0.46294983"
     inkscape:cx="363.45376"
     inkscape:cy="618.19968"
     inkscape:document-units="mm"
     inkscape:current-layer="layer2"
     inkscape:document-rotation="0"
     showgrid="false"
     inkscape:window-width="1368"
     inkscape:window-height="850"
     inkscape:window-x="-6"
     inkscape:window-y="-6"
     inkscape:window-maximized="1" />
  <metadata
     id="metadata5">
    <rdf:RDF>
      <cc:Work
         rdf:about="">
        <dc:format>image/svg+xml</dc:format>
        <dc:type
           rdf:resource="http://purl.org/dc/dcmitype/StillImage" />
        <dc:title />
      </cc:Work>
    </rdf:RDF>
  </metadata>
  <g
     inkscape:groupmode="layer"
     id="layer2"
     inkscape:label="Layer 2"
     style="display:inline;filter:url(#filter1436)">
    <path
       sodipodi:type="star"
       style="opacity:0.9977;fill:#ffffe0;fill-opacity:1;stroke:#ffe6ff;stroke-width:0"
       id="path1083"
       sodipodi:sides="5"
       sodipodi:cx="31.497093"
       sodipodi:cy="98.397179"
       sodipodi:r1="1.6136158"
       sodipodi:r2="0.49007171"
       sodipodi:arg1="0.94812554"
       sodipodi:arg2="1.5406578"
       inkscape:flatsided="false"
       inkscape:rounded="0.00713717"
       inkscape:randomized="0"
       d="m 32.438165,99.707957 c -0.007,0.0054 -0.91747,-0.820879 -0.926304,-0.820929 -0.009,-5.1e-5 -0.963128,0.815297 -0.970585,0.810216 -0.0073,-0.005 0.497189,-1.126232 0.494506,-1.134649 -0.0027,-0.0086 -1.073017,-0.664048 -1.070488,-0.67271 0.0025,-0.0085 1.22475,0.12483 1.231926,0.119678 0.0073,-0.0053 0.299967,-1.225702 0.308986,-1.225974 0.0088,-2.67e-4 0.259749,1.20338 0.266866,1.208613 0.0073,0.0053 1.258407,-0.09348 1.261453,-0.08498 0.003,0.0083 -1.064217,0.6189 -1.066994,0.627286 -0.0028,0.0086 0.477771,1.16793 0.470634,1.173452 z"
       inkscape:transform-center-x="-0.0028145655"
       inkscape:transform-center-y="-0.13054364" />
    <path
       inkscape:transform-center-y="-0.060724938"
       inkscape:transform-center-x="-0.0013117018"
       d="m 91.112003,51.511448 c -0.0033,0.0025 -0.426784,-0.381852 -0.430893,-0.381876 -0.0042,-2.3e-5 -0.448024,0.379257 -0.451492,0.376893 -0.0034,-0.0023 0.23128,-0.523895 0.230032,-0.527811 -0.0013,-0.004 -0.499141,-0.308898 -0.497965,-0.312928 0.0012,-0.0039 0.569723,0.05807 0.573061,0.05567 0.0034,-0.0024 0.139538,-0.570166 0.143733,-0.570292 0.0041,-1.24e-4 0.120829,0.559783 0.12414,0.562217 0.0034,0.0025 0.585379,-0.04348 0.586796,-0.03953 0.0014,0.0039 -0.495047,0.287897 -0.496339,0.291798 -0.0013,0.004 0.222247,0.543292 0.218927,0.54586 z"
       inkscape:randomized="0"
       inkscape:rounded="0.00713717"
       inkscape:flatsided="false"
       sodipodi:arg2="1.5406578"
       sodipodi:arg1="0.94812554"
       sodipodi:r2="0.22796921"
       sodipodi:r1="0.75061405"
       sodipodi:cy="50.901707"
       sodipodi:cx="90.67424"
       sodipodi:sides="5"
       id="path1083-5"
       style="display:inline;opacity:0.9977;fill:#ffffe0;fill-opacity:1;stroke:#ffe6ff;stroke-width:0"
       sodipodi:type="star" />
    <path
       inkscape:transform-center-y="-0.13054364"
       inkscape:transform-center-x="-0.0028145655"
       d="m 127.62545,92.958476 c -0.007,0.0054 -0.91747,-0.820879 -0.9263,-0.820929 -0.009,-5.1e-5 -0.96313,0.815297 -0.97059,0.810216 -0.007,-0.005 0.49719,-1.126232 0.49451,-1.134649 -0.003,-0.0086 -1.07302,-0.664048 -1.07049,-0.67271 0.002,-0.0085 1.22475,0.124829 1.23193,0.119677 0.007,-0.0053 0.29996,-1.225702 0.30898,-1.225974 0.009,-2.66e-4 0.25975,1.203381 0.26687,1.208614 0.007,0.0053 1.25841,-0.09348 1.26145,-0.08498 0.003,0.0083 -1.06422,0.6189 -1.06699,0.627286 -0.003,0.0086 0.47777,1.16793 0.47063,1.173452 z"
       inkscape:randomized="0"
       inkscape:rounded="0.00713717"
       inkscape:flatsided="false"
       sodipodi:arg2="1.5406578"
       sodipodi:arg1="0.94812554"
       sodipodi:r2="0.49007174"
       sodipodi:r1="1.6136158"
       sodipodi:cy="91.647698"
       sodipodi:cx="126.68438"
       sodipodi:sides="5"
       id="path1083-0"
       style="display:inline;opacity:0.9977;fill:#ffffe0;fill-opacity:1;stroke:#ffe6ff;stroke-width:0"
       sodipodi:type="star" />
    <path
       inkscape:transform-center-y="-0.22654484"
       inkscape:transform-center-x="-0.0048848179"
       d="m 161.89777,49.360855 c -0.0121,0.0094 -1.59216,-1.424541 -1.60749,-1.424627 -0.0157,-8.9e-5 -1.6714,1.414854 -1.68434,1.406035 -0.0127,-0.0086 0.86281,-1.954444 0.85816,-1.96905 -0.005,-0.01492 -1.8621,-1.15238 -1.85771,-1.167412 0.004,-0.01472 2.12541,0.216628 2.13786,0.207687 0.0127,-0.0091 0.52056,-2.127063 0.53621,-2.127535 0.0153,-4.62e-4 0.45077,2.088327 0.46312,2.097408 0.0126,0.0093 2.18382,-0.162218 2.1891,-0.147478 0.005,0.01443 -1.84682,1.07403 -1.85164,1.088583 -0.005,0.01487 0.82911,2.026807 0.81673,2.036389 z"
       inkscape:randomized="0"
       inkscape:rounded="0.00713717"
       inkscape:flatsided="false"
       sodipodi:arg2="1.5406578"
       sodipodi:arg1="0.94812554"
       sodipodi:r2="0.85046273"
       sodipodi:r1="2.8002431"
       sodipodi:cy="47.086151"
       sodipodi:cx="160.26465"
       sodipodi:sides="5"
       id="path1083-8"
       style="display:inline;opacity:0.9977;fill:#ffffe0;fill-opacity:1;stroke:#ffe6ff;stroke-width:0"
       sodipodi:type="star" />
    <path
       inkscape:transform-center-y="-0.13054364"
       inkscape:transform-center-x="-0.0028145655"
       d="m 176.11067,139.09764 c -0.007,0.005 -0.91747,-0.82088 -0.9263,-0.82093 -0.009,-5e-5 -0.96313,0.8153 -0.97059,0.81022 -0.007,-0.005 0.49719,-1.12623 0.49451,-1.13465 -0.003,-0.009 -1.07302,-0.66405 -1.07049,-0.67271 0.002,-0.008 1.22475,0.12483 1.23193,0.11968 0.007,-0.005 0.29997,-1.2257 0.30898,-1.22597 0.009,-2.7e-4 0.25975,1.20338 0.26687,1.20861 0.007,0.005 1.25841,-0.0935 1.26145,-0.085 0.003,0.008 -1.06421,0.6189 -1.06699,0.62728 -0.003,0.009 0.47777,1.16793 0.47063,1.17345 z"
       inkscape:randomized="0"
       inkscape:rounded="0.00713717"
       inkscape:flatsided="false"
       sodipodi:arg2="1.5406578"
       sodipodi:arg1="0.94812554"
       sodipodi:r2="0.49007174"
       sodipodi:r1="1.6136158"
       sodipodi:cy="137.78686"
       sodipodi:cx="175.1696"
       sodipodi:sides="5"
       id="path1083-53"
       style="display:inline;opacity:0.9977;fill:#ffffe0;fill-opacity:1;stroke:#ffe6ff;stroke-width:0"
       sodipodi:type="star" />
    <path
       inkscape:transform-center-y="-0.054103833"
       inkscape:transform-center-x="-0.0011687626"
       d="m 80.038324,95.938265 c -0.0029,0.0022 -0.380257,-0.340224 -0.383918,-0.340244 -0.0037,-2.1e-5 -0.399181,0.33791 -0.402271,0.335804 -0.003,-0.0021 0.206066,-0.466781 0.204954,-0.470269 -0.0011,-0.0036 -0.444725,-0.275223 -0.443677,-0.278814 0.001,-0.0035 0.507612,0.05174 0.510587,0.0496 0.003,-0.0022 0.124325,-0.508007 0.128063,-0.50812 0.0037,-1.1e-4 0.107656,0.498756 0.110606,0.500925 0.003,0.0022 0.521562,-0.03874 0.522824,-0.03522 0.0012,0.0034 -0.441077,0.256511 -0.442228,0.259986 -0.0012,0.0036 0.198018,0.484063 0.19506,0.486352 z"
       inkscape:randomized="0"
       inkscape:rounded="0.00713717"
       inkscape:flatsided="false"
       sodipodi:arg2="1.5406578"
       sodipodi:arg1="0.94812554"
       sodipodi:r2="0.20311624"
       sodipodi:r1="0.66878283"
       sodipodi:cy="95.394997"
       sodipodi:cx="79.648285"
       sodipodi:sides="5"
       id="path1083-7"
       style="display:inline;opacity:0.9977;fill:#ffffe0;fill-opacity:1;stroke:#ffe6ff;stroke-width:0"
       sodipodi:type="star" />
    <path
       inkscape:transform-center-y="-0.13054364"
       inkscape:transform-center-x="-0.0028145655"
       d="m 135.05463,44.864264 c -0.007,0.0054 -0.91747,-0.820879 -0.92631,-0.820929 -0.009,-5.1e-5 -0.96312,0.815298 -0.97058,0.810216 -0.007,-0.005 0.49719,-1.126232 0.49451,-1.134648 -0.003,-0.0086 -1.07302,-0.664049 -1.07049,-0.672711 0.002,-0.0085 1.22475,0.12483 1.23192,0.119678 0.007,-0.0053 0.29997,-1.225702 0.30899,-1.225974 0.009,-2.66e-4 0.25975,1.203381 0.26686,1.208613 0.007,0.0053 1.25841,-0.09348 1.26146,-0.08498 0.003,0.0083 -1.06422,0.618901 -1.067,0.627287 -0.003,0.0086 0.47777,1.16793 0.47064,1.173451 z"
       inkscape:randomized="0"
       inkscape:rounded="0.00713717"
       inkscape:flatsided="false"
       sodipodi:arg2="1.5406578"
       sodipodi:arg1="0.94812554"
       sodipodi:r2="0.49007174"
       sodipodi:r1="1.6136158"
       sodipodi:cy="43.553486"
       sodipodi:cx="134.11356"
       sodipodi:sides="5"
       id="path1083-3"
       style="display:inline;opacity:0.9977;fill:#ffffe0;fill-opacity:1;stroke:#ffe6ff;stroke-width:0"
       sodipodi:type="star" />
    <path
       inkscape:transform-center-y="-0.13054364"
       inkscape:transform-center-x="-0.0028145655"
       d="m 35.347123,28.441849 c -0.007,0.0054 -0.91747,-0.820879 -0.926304,-0.820929 -0.009,-5.1e-5 -0.963128,0.815298 -0.970585,0.810216 -0.0073,-0.005 0.497189,-1.126231 0.494507,-1.134648 -0.0027,-0.0086 -1.073017,-0.664049 -1.070489,-0.672711 0.0025,-0.0085 1.22475,0.12483 1.231926,0.119678 0.0073,-0.0053 0.299967,-1.225702 0.308987,-1.225974 0.0088,-2.66e-4 0.259748,1.203381 0.266865,1.208613 0.0073,0.0053 1.258407,-0.09348 1.261453,-0.08498 0.003,0.0083 -1.064216,0.6189 -1.066994,0.627286 -0.0028,0.0086 0.477771,1.16793 0.470634,1.173451 z"
       inkscape:randomized="0"
       inkscape:rounded="0.00713717"
       inkscape:flatsided="false"
       sodipodi:arg2="1.5406578"
       sodipodi:arg1="0.94812554"
       sodipodi:r2="0.49007174"
       sodipodi:r1="1.6136158"
       sodipodi:cy="27.131072"
       sodipodi:cx="34.40605"
       sodipodi:sides="5"
       id="path1083-2"
       style="display:inline;opacity:0.9977;fill:#ffffe0;fill-opacity:1;stroke:#ffe6ff;stroke-width:0"
       sodipodi:type="star" />
    <path
       inkscape:transform-center-y="-0.13054364"
       inkscape:transform-center-x="-0.0028145655"
       d="m 14.623599,17.102566 c -0.007,0.0054 -0.91747,-0.82088 -0.926304,-0.82093 -0.009,-5.1e-5 -0.963128,0.815298 -0.970585,0.810216 -0.0073,-0.005 0.497189,-1.126231 0.494507,-1.134648 -0.0027,-0.0086 -1.073017,-0.664049 -1.070489,-0.672711 0.0025,-0.0085 1.22475,0.12483 1.231926,0.119678 0.0073,-0.0053 0.299967,-1.225702 0.308987,-1.225974 0.0088,-2.66e-4 0.259748,1.203381 0.266865,1.208614 0.0073,0.0053 1.258407,-0.09348 1.261453,-0.08498 0.003,0.0083 -1.064216,0.6189 -1.066994,0.627286 -0.0028,0.0086 0.477771,1.16793 0.470634,1.173452 z"
       inkscape:randomized="0"
       inkscape:rounded="0.00713717"
       inkscape:flatsided="false"
       sodipodi:arg2="1.5406578"
       sodipodi:arg1="0.94812554"
       sodipodi:r2="0.49007174"
       sodipodi:r1="1.6136158"
       sodipodi:cy="15.791787"
       sodipodi:cx="13.682528"
       sodipodi:sides="5"
       id="path1083-86"
       style="display:inline;opacity:0.9977;fill:#ffffe0;fill-opacity:1;stroke:#ffe6ff;stroke-width:0"
       sodipodi:type="star" />
    <path
       inkscape:transform-center-y="-0.13054364"
       inkscape:transform-center-x="-0.0028145655"
       d="m 45.90439,38.217097 c -0.007,0.0054 -0.917471,-0.820879 -0.926304,-0.820929 -0.009,-5.1e-5 -0.963129,0.815297 -0.970585,0.810216 -0.0073,-0.005 0.497188,-1.126232 0.494506,-1.134649 -0.0027,-0.0086 -1.073017,-0.664048 -1.070488,-0.67271 0.0025,-0.0085 1.224749,0.12483 1.231925,0.119678 0.0073,-0.0053 0.299968,-1.225702 0.308987,-1.225974 0.0088,-2.67e-4 0.259748,1.20338 0.266866,1.208613 0.0073,0.0053 1.258407,-0.09348 1.261452,-0.08498 0.003,0.0083 -1.064216,0.6189 -1.066993,0.627286 -0.0028,0.0086 0.477771,1.167931 0.470634,1.173452 z"
       inkscape:randomized="0"
       inkscape:rounded="0.00713717"
       inkscape:flatsided="false"
       sodipodi:arg2="1.5406578"
       sodipodi:arg1="0.94812554"
       sodipodi:r2="0.49007174"
       sodipodi:r1="1.6136158"
       sodipodi:cy="36.906319"
       sodipodi:cx="44.963316"
       sodipodi:sides="5"
       id="path1083-1"
       style="display:inline;opacity:0.9977;fill:#ffffe0;fill-opacity:1;stroke:#ffe6ff;stroke-width:0"
       sodipodi:type="star" />
    <path
       inkscape:transform-center-y="-0.078180564"
       inkscape:transform-center-x="-0.0016855103"
       d="m 25.361978,26.095801 c -0.0042,0.0032 -0.549456,-0.491609 -0.554746,-0.491639 -0.0054,-3e-5 -0.5768,0.488267 -0.581266,0.485223 -0.0044,-0.003 0.297757,-0.674479 0.296151,-0.679519 -0.0016,-0.0051 -0.64261,-0.397687 -0.641095,-0.402874 0.0015,-0.0051 0.733479,0.07476 0.737777,0.07167 0.0044,-0.0032 0.179645,-0.734051 0.185046,-0.734213 0.0053,-1.6e-4 0.155559,0.720682 0.159821,0.723816 0.0044,0.0032 0.753637,-0.05598 0.755461,-0.0509 0.0018,0.005 -0.63734,0.370648 -0.639003,0.37567 -0.0017,0.0051 0.286128,0.699452 0.281854,0.702758 z"
       inkscape:randomized="0"
       inkscape:rounded="0.00713717"
       inkscape:flatsided="false"
       sodipodi:arg2="1.5406578"
       sodipodi:arg1="0.94812554"
       sodipodi:r2="0.29349485"
       sodipodi:r1="0.96636444"
       sodipodi:cy="25.310801"
       sodipodi:cx="24.798388"
       sodipodi:sides="5"
       id="path1083-09"
       style="display:inline;opacity:0.9977;fill:#ffffe0;fill-opacity:1;stroke:#ffe6ff;stroke-width:0"
       sodipodi:type="star" />
    <path
       inkscape:transform-center-y="-0.095635248"
       inkscape:transform-center-x="-0.0020631337"
       d="m 96.465403,15.538532 c -0.0051,0.004 -0.672127,-0.601366 -0.678599,-0.601403 -0.0066,-3.7e-5 -0.705575,0.597277 -0.711038,0.593555 -0.0053,-0.0036 0.364234,-0.825064 0.362269,-0.83123 -0.002,-0.0063 -0.786079,-0.486474 -0.784226,-0.492819 0.0018,-0.0062 0.897236,0.09145 0.902493,0.08767 0.0054,-0.0039 0.219752,-0.897934 0.22636,-0.898133 0.0065,-1.95e-4 0.190288,0.881582 0.195502,0.885415 0.0053,0.0039 0.921894,-0.06848 0.924125,-0.06226 0.0022,0.0061 -0.779632,0.453398 -0.781666,0.459542 -0.0021,0.0063 0.350009,0.855611 0.34478,0.859656 z"
       inkscape:randomized="0"
       inkscape:rounded="0.00713717"
       inkscape:flatsided="false"
       sodipodi:arg2="1.5406578"
       sodipodi:arg1="0.94812554"
       sodipodi:r2="0.35902047"
       sodipodi:r1="1.182115"
       sodipodi:cy="14.578272"
       sodipodi:cx="95.775986"
       sodipodi:sides="5"
       id="path1083-83"
       style="display:inline;opacity:0.9977;fill:#ffffe0;fill-opacity:1;stroke:#ffe6ff;stroke-width:0"
       sodipodi:type="star" />
    <path
       inkscape:transform-center-y="-0.13054364"
       inkscape:transform-center-x="-0.0028145655"
       d="m 67.409928,40.563155 c -0.007,0.0054 -0.91747,-0.820879 -0.926303,-0.820929 -0.009,-5.1e-5 -0.963129,0.815297 -0.970585,0.810216 -0.0073,-0.005 0.497188,-1.126232 0.494506,-1.134649 -0.0027,-0.0086 -1.073017,-0.664048 -1.070488,-0.67271 0.0025,-0.0085 1.224749,0.124829 1.231925,0.119678 0.0073,-0.0053 0.299968,-1.225703 0.308987,-1.225974 0.0088,-2.67e-4 0.259748,1.20338 0.266866,1.208613 0.0073,0.0053 1.258406,-0.09348 1.261452,-0.08498 0.003,0.0083 -1.064216,0.6189 -1.066993,0.627286 -0.0028,0.0086 0.477771,1.16793 0.470633,1.173452 z"
       inkscape:randomized="0"
       inkscape:rounded="0.00713717"
       inkscape:flatsided="false"
       sodipodi:arg2="1.5406578"
       sodipodi:arg1="0.94812554"
       sodipodi:r2="0.49007174"
       sodipodi:r1="1.6136158"
       sodipodi:cy="39.252378"
       sodipodi:cx="66.468858"
       sodipodi:sides="5"
       id="path1083-03"
       style="display:inline;opacity:0.9977;fill:#ffffe0;fill-opacity:1;stroke:#ffe6ff;stroke-width:0"
       sodipodi:type="star" />
    <path
       inkscape:transform-center-y="-0.13054364"
       inkscape:transform-center-x="-0.0028145655"
       d="m 31.437022,74.581012 c -0.007,0.0054 -0.91747,-0.82088 -0.926303,-0.82093 -0.009,-5.1e-5 -0.963129,0.815298 -0.970585,0.810216 -0.0073,-0.005 0.497188,-1.126231 0.494506,-1.134648 -0.0027,-0.0086 -1.073017,-0.664049 -1.070488,-0.672711 0.0025,-0.0085 1.224749,0.12483 1.231925,0.119678 0.0073,-0.0053 0.299967,-1.225702 0.308987,-1.225974 0.0088,-2.66e-4 0.259748,1.203381 0.266865,1.208614 0.0073,0.0053 1.258407,-0.09348 1.261453,-0.08498 0.003,0.0083 -1.064216,0.6189 -1.066994,0.627286 -0.0028,0.0086 0.477771,1.16793 0.470634,1.173452 z"
       inkscape:randomized="0"
       inkscape:rounded="0.00713717"
       inkscape:flatsided="false"
       sodipodi:arg2="1.5406578"
       sodipodi:arg1="0.94812554"
       sodipodi:r2="0.49007174"
       sodipodi:r1="1.6136158"
       sodipodi:cy="73.270235"
       sodipodi:cx="30.495951"
       sodipodi:sides="5"
       id="path1083-26"
       style="display:inline;opacity:0.9977;fill:#ffffe0;fill-opacity:1;stroke:#ffe6ff;stroke-width:0"
       sodipodi:type="star" />
    <path
       inkscape:transform-center-y="-0.13054364"
       inkscape:transform-center-x="-0.0028145655"
       d="m 186.66792,21.012664 c -0.007,0.0054 -0.91747,-0.82088 -0.9263,-0.82093 -0.009,-5.1e-5 -0.96313,0.815298 -0.97058,0.810216 -0.007,-0.005 0.49718,-1.126231 0.4945,-1.134648 -0.003,-0.0086 -1.07302,-0.664049 -1.07049,-0.672711 0.002,-0.0085 1.22475,0.12483 1.23193,0.119678 0.007,-0.0053 0.29997,-1.225702 0.30899,-1.225974 0.009,-2.66e-4 0.25974,1.203381 0.26686,1.208614 0.007,0.0053 1.25841,-0.09348 1.26145,-0.08498 0.003,0.0083 -1.06421,0.6189 -1.06699,0.627286 -0.003,0.0086 0.47777,1.16793 0.47063,1.173452 z"
       inkscape:randomized="0"
       inkscape:rounded="0.00713717"
       inkscape:flatsided="false"
       sodipodi:arg2="1.5406578"
       sodipodi:arg1="0.94812554"
       sodipodi:r2="0.49007174"
       sodipodi:r1="1.6136158"
       sodipodi:cy="19.701885"
       sodipodi:cx="185.72686"
       sodipodi:sides="5"
       id="path1083-033"
       style="display:inline;opacity:0.9977;fill:#ffffe0;fill-opacity:1;stroke:#ffe6ff;stroke-width:0"
       sodipodi:type="star" />
    <path
       inkscape:transform-center-y="-0.048227076"
       inkscape:transform-center-x="-0.0010362926"
       d="m 193.71081,61.788691 c -0.003,0.002 -0.33893,-0.30325 -0.3422,-0.303268 -0.003,-1.9e-5 -0.35579,0.301188 -0.35855,0.299311 -0.003,-0.0018 0.18367,-0.416054 0.18268,-0.419163 -0.001,-0.0032 -0.39639,-0.245314 -0.39546,-0.248514 9.2e-4,-0.0031 0.45245,0.04612 0.4551,0.04421 0.003,-0.0019 0.11081,-0.4528 0.11415,-0.4529 0.003,-9.9e-5 0.0959,0.444554 0.0986,0.446487 0.003,0.002 0.46488,-0.03453 0.46601,-0.0314 0.001,0.0031 -0.39315,0.228635 -0.39417,0.231733 -0.001,0.0032 0.1765,0.431458 0.17386,0.433497 z"
       inkscape:randomized="0"
       inkscape:rounded="0.00713717"
       inkscape:flatsided="false"
       sodipodi:arg2="1.5406578"
       sodipodi:arg1="0.94812554"
       sodipodi:r2="0.18104275"
       sodipodi:r1="0.59610337"
       sodipodi:cy="61.304462"
       sodipodi:cx="193.36316"
       sodipodi:sides="5"
       id="path1083-00"
       style="display:inline;opacity:0.9977;fill:#ffffe0;fill-opacity:1;stroke:#ffe6ff;stroke-width:0"
       sodipodi:type="star" />
    <path
       inkscape:transform-center-y="-0.13054364"
       inkscape:transform-center-x="-0.0028145655"
       d="m 190.57803,36.653056 c -0.007,0.0054 -0.91747,-0.820879 -0.9263,-0.820929 -0.009,-5.1e-5 -0.96313,0.815297 -0.97058,0.810216 -0.007,-0.005 0.49718,-1.126232 0.4945,-1.134649 -0.003,-0.0086 -1.07301,-0.664048 -1.07049,-0.67271 0.002,-0.0085 1.22475,0.124829 1.23193,0.119678 0.007,-0.0053 0.29997,-1.225703 0.30899,-1.225974 0.009,-2.67e-4 0.25974,1.20338 0.26686,1.208613 0.007,0.0053 1.25841,-0.09348 1.26145,-0.08498 0.003,0.0083 -1.06421,0.6189 -1.06699,0.627286 -0.003,0.0086 0.47777,1.16793 0.47063,1.173452 z"
       inkscape:randomized="0"
       inkscape:rounded="0.00713717"
       inkscape:flatsided="false"
       sodipodi:arg2="1.5406578"
       sodipodi:arg1="0.94812554"
       sodipodi:r2="0.49007174"
       sodipodi:r1="1.6136158"
       sodipodi:cy="35.342279"
       sodipodi:cx="189.63696"
       sodipodi:sides="5"
       id="path1083-9"
       style="display:inline;opacity:0.9977;fill:#ffffe0;fill-opacity:1;stroke:#ffe6ff;stroke-width:0"
       sodipodi:type="star" />
    <path
       inkscape:transform-center-y="-0.13054364"
       inkscape:transform-center-x="-0.0028145655"
       d="m 189.405,83.574237 c -0.007,0.0054 -0.91747,-0.82088 -0.9263,-0.82093 -0.009,-5.1e-5 -0.96313,0.815298 -0.97059,0.810216 -0.007,-0.005 0.49719,-1.126231 0.49451,-1.134648 -0.003,-0.0086 -1.07302,-0.664049 -1.07049,-0.672711 0.002,-0.0085 1.22475,0.12483 1.23192,0.119678 0.007,-0.0053 0.29997,-1.225702 0.30899,-1.225974 0.009,-2.66e-4 0.25975,1.203381 0.26687,1.208614 0.007,0.0053 1.2584,-0.09348 1.26145,-0.08498 0.003,0.0083 -1.06422,0.6189 -1.06699,0.627286 -0.003,0.0086 0.47777,1.16793 0.47063,1.173452 z"
       inkscape:randomized="0"
       inkscape:rounded="0.00713717"
       inkscape:flatsided="false"
       sodipodi:arg2="1.5406578"
       sodipodi:arg1="0.94812554"
       sodipodi:r2="0.49007174"
       sodipodi:r1="1.6136158"
       sodipodi:cy="82.263462"
       sodipodi:cx="188.46393"
       sodipodi:sides="5"
       id="path1083-02"
       style="display:inline;opacity:0.9977;fill:#ffffe0;fill-opacity:1;stroke:#ffe6ff;stroke-width:0"
       sodipodi:type="star" />
    <path
       inkscape:transform-center-y="-0.13054364"
       inkscape:transform-center-x="-0.0028145655"
       d="m 158.51521,70.279902 c -0.007,0.0054 -0.91747,-0.820879 -0.9263,-0.820929 -0.009,-5.1e-5 -0.96313,0.815298 -0.97058,0.810216 -0.007,-0.005 0.49718,-1.126232 0.4945,-1.134648 -0.003,-0.0086 -1.07302,-0.664049 -1.07049,-0.672711 0.002,-0.0085 1.22475,0.12483 1.23193,0.119678 0.007,-0.0053 0.29997,-1.225702 0.30899,-1.225974 0.009,-2.66e-4 0.25974,1.203381 0.26686,1.208613 0.007,0.0053 1.25841,-0.09348 1.26145,-0.08498 0.003,0.0083 -1.06421,0.618901 -1.06699,0.627287 -0.003,0.0086 0.47777,1.16793 0.47063,1.173451 z"
       inkscape:randomized="0"
       inkscape:rounded="0.00713717"
       inkscape:flatsided="false"
       sodipodi:arg2="1.5406578"
       sodipodi:arg1="0.94812554"
       sodipodi:r2="0.49007174"
       sodipodi:r1="1.6136158"
       sodipodi:cy="68.969127"
       sodipodi:cx="157.57415"
       sodipodi:sides="5"
       id="path1083-22"
       style="display:inline;opacity:0.9977;fill:#ffffe0;fill-opacity:1;stroke:#ffe6ff;stroke-width:0"
       sodipodi:type="star" />
    <path
       inkscape:transform-center-y="-0.13054364"
       inkscape:transform-center-x="-0.0028145655"
       d="m 151.08605,25.704781 c -0.007,0.0054 -0.91747,-0.820879 -0.92631,-0.820929 -0.009,-5.1e-5 -0.96313,0.815298 -0.97058,0.810216 -0.007,-0.005 0.49719,-1.126232 0.4945,-1.134648 -0.003,-0.0086 -1.07301,-0.664049 -1.07049,-0.672711 0.002,-0.0085 1.22475,0.12483 1.23193,0.119678 0.007,-0.0053 0.29997,-1.225702 0.30899,-1.225974 0.009,-2.66e-4 0.25975,1.203381 0.26686,1.208613 0.007,0.0053 1.25841,-0.09348 1.26146,-0.08498 0.003,0.0083 -1.06422,0.618901 -1.067,0.627287 -0.003,0.0086 0.47777,1.16793 0.47064,1.173451 z"
       inkscape:randomized="0"
       inkscape:rounded="0.00713717"
       inkscape:flatsided="false"
       sodipodi:arg2="1.5406578"
       sodipodi:arg1="0.94812554"
       sodipodi:r2="0.49007174"
       sodipodi:r1="1.6136158"
       sodipodi:cy="24.394003"
       sodipodi:cx="150.14497"
       sodipodi:sides="5"
       id="path1083-6"
       style="display:inline;opacity:0.9977;fill:#ffffe0;fill-opacity:1;stroke:#ffe6ff;stroke-width:0"
       sodipodi:type="star" />
    <path
       inkscape:transform-center-y="-0.13054364"
       inkscape:transform-center-x="-0.0028145655"
       d="m 116.67717,57.376582 c -0.007,0.0054 -0.91747,-0.820879 -0.9263,-0.820929 -0.009,-5.1e-5 -0.96313,0.815297 -0.97059,0.810216 -0.007,-0.005 0.49719,-1.126232 0.49451,-1.134649 -0.003,-0.0086 -1.07302,-0.664048 -1.07049,-0.67271 0.002,-0.0085 1.22475,0.124829 1.23193,0.119678 0.007,-0.0053 0.29996,-1.225703 0.30898,-1.225974 0.009,-2.67e-4 0.25975,1.20338 0.26687,1.208613 0.007,0.0053 1.2584,-0.09348 1.26145,-0.08498 0.003,0.0083 -1.06422,0.6189 -1.06699,0.627286 -0.003,0.0086 0.47777,1.16793 0.47063,1.173452 z"
       inkscape:randomized="0"
       inkscape:rounded="0.00713717"
       inkscape:flatsided="false"
       sodipodi:arg2="1.5406578"
       sodipodi:arg1="0.94812554"
       sodipodi:r2="0.49007174"
       sodipodi:r1="1.6136158"
       sodipodi:cy="56.065802"
       sodipodi:cx="115.7361"
       sodipodi:sides="5"
       id="path1083-06"
       style="display:inline;opacity:0.9977;fill:#ffffe0;fill-opacity:1;stroke:#ffe6ff;stroke-width:0"
       sodipodi:type="star" />
    <path
       inkscape:transform-center-y="-0.075001384"
       inkscape:transform-center-x="-0.0016210814"
       d="m 186.78888,99.143488 c -0.004,0.0031 -0.52714,-0.471636 -0.53221,-0.471665 -0.005,-2.9e-5 -0.55337,0.468429 -0.55765,0.46551 -0.004,-0.0029 0.28566,-0.647076 0.28412,-0.651912 -0.002,-0.0049 -0.6165,-0.381529 -0.61505,-0.386506 0.001,-0.0049 0.70368,0.07172 0.7078,0.06876 0.004,-0.003 0.17235,-0.704226 0.17753,-0.704382 0.005,-1.53e-4 0.14924,0.691401 0.15333,0.694408 0.004,0.0031 0.72301,-0.05371 0.72476,-0.04883 0.002,0.0048 -0.61144,0.355589 -0.61304,0.360407 -0.002,0.0049 0.27451,0.671034 0.27041,0.674206 z"
       inkscape:randomized="0"
       inkscape:rounded="0.00713717"
       inkscape:flatsided="false"
       sodipodi:arg2="1.5406578"
       sodipodi:arg1="0.94812554"
       sodipodi:r2="0.28157046"
       sodipodi:r1="0.92710209"
       sodipodi:cy="98.390381"
       sodipodi:cx="186.24818"
       sodipodi:sides="5"
       id="path1083-4"
       style="display:inline;opacity:0.9977;fill:#ffffe0;fill-opacity:1;stroke:#ffe6ff;stroke-width:0"
       sodipodi:type="star" />
    <path
       inkscape:transform-center-y="-0.13054364"
       inkscape:transform-center-x="-0.0028145655"
       d="m 80.704263,122.28422 c -0.007,0.005 -0.91747,-0.82088 -0.926304,-0.82093 -0.009,-5e-5 -0.963128,0.8153 -0.970585,0.81022 -0.0073,-0.005 0.497189,-1.12623 0.494506,-1.13465 -0.0027,-0.009 -1.073016,-0.66405 -1.070488,-0.67271 0.0025,-0.008 1.22475,0.12483 1.231926,0.11968 0.0073,-0.005 0.299967,-1.22571 0.308986,-1.22598 0.0088,-2.6e-4 0.259749,1.20338 0.266866,1.20862 0.0073,0.005 1.258407,-0.0935 1.261453,-0.085 0.003,0.008 -1.064217,0.6189 -1.066994,0.62729 -0.0028,0.009 0.477771,1.16793 0.470634,1.17345 z"
       inkscape:randomized="0"
       inkscape:rounded="0.00713717"
       inkscape:flatsided="false"
       sodipodi:arg2="1.5406578"
       sodipodi:arg1="0.94812554"
       sodipodi:r2="0.49007174"
       sodipodi:r1="1.6136158"
       sodipodi:cy="120.97344"
       sodipodi:cx="79.763193"
       sodipodi:sides="5"
       id="path1083-265"
       style="display:inline;opacity:0.9977;fill:#ffffe0;fill-opacity:1;stroke:#ffe6ff;stroke-width:0"
       sodipodi:type="star" />
    <path
       inkscape:transform-center-y="-0.13054364"
       inkscape:transform-center-x="-0.0028145655"
       d="m 25.180865,141.05269 c -0.007,0.005 -0.91747,-0.82088 -0.926303,-0.82093 -0.009,-5e-5 -0.963129,0.8153 -0.970585,0.81022 -0.0073,-0.005 0.497188,-1.12623 0.494506,-1.13465 -0.0027,-0.009 -1.073017,-0.66405 -1.070488,-0.67271 0.0025,-0.008 1.224749,0.12483 1.231925,0.11968 0.0073,-0.005 0.299968,-1.22571 0.308987,-1.22598 0.0088,-2.6e-4 0.259748,1.20338 0.266866,1.20862 0.0073,0.005 1.258406,-0.0935 1.261452,-0.085 0.003,0.008 -1.064216,0.6189 -1.066993,0.62729 -0.0028,0.009 0.477771,1.16793 0.470633,1.17345 z"
       inkscape:randomized="0"
       inkscape:rounded="0.00713717"
       inkscape:flatsided="false"
       sodipodi:arg2="1.5406578"
       sodipodi:arg1="0.94812554"
       sodipodi:r2="0.49007174"
       sodipodi:r1="1.6136158"
       sodipodi:cy="139.74191"
       sodipodi:cx="24.239794"
       sodipodi:sides="5"
       id="path1083-036"
       style="display:inline;opacity:0.9977;fill:#ffffe0;fill-opacity:1;stroke:#ffe6ff;stroke-width:0"
       sodipodi:type="star" />
    <path
       inkscape:transform-center-y="-0.13054364"
       inkscape:transform-center-x="-0.0028145655"
       d="m 16.578649,90.612414 c -0.007,0.0054 -0.91747,-0.820879 -0.926304,-0.820929 -0.009,-5.1e-5 -0.963128,0.815297 -0.970585,0.810216 -0.0073,-0.005 0.497189,-1.126232 0.494506,-1.134649 -0.0027,-0.0086 -1.073017,-0.664048 -1.070488,-0.67271 0.0025,-0.0085 1.22475,0.12483 1.231926,0.119678 0.0073,-0.0053 0.299967,-1.225702 0.308986,-1.225974 0.0088,-2.66e-4 0.259748,1.20338 0.266866,1.208613 0.0073,0.0053 1.258407,-0.09348 1.261453,-0.08498 0.003,0.0083 -1.064217,0.618901 -1.066994,0.627286 -0.0028,0.0086 0.477771,1.167931 0.470634,1.173452 z"
       inkscape:randomized="0"
       inkscape:rounded="0.00713717"
       inkscape:flatsided="false"
       sodipodi:arg2="1.5406578"
       sodipodi:arg1="0.94812554"
       sodipodi:r2="0.49007174"
       sodipodi:r1="1.6136158"
       sodipodi:cy="89.301639"
       sodipodi:cx="15.637577"
       sodipodi:sides="5"
       id="path1083-34"
       style="display:inline;opacity:0.9977;fill:#ffffe0;fill-opacity:1;stroke:#ffe6ff;stroke-width:0"
       sodipodi:type="star" />
    <path
       inkscape:transform-center-y="-0.23032943"
       inkscape:transform-center-x="-0.0049652163"
       d="m 21.596937,58.829881 c -0.01233,0.0095 -1.618764,-1.44834 -1.63435,-1.448428 -0.01592,-9e-5 -1.699322,1.438492 -1.712478,1.429526 -0.01288,-0.0088 0.877228,-1.987097 0.872496,-2.001948 -0.0048,-0.01517 -1.893207,-1.171632 -1.888746,-1.186915 0.0044,-0.01496 2.160921,0.220247 2.173582,0.211157 0.01293,-0.0093 0.529255,-2.162601 0.545169,-2.163081 0.01558,-4.7e-4 0.458294,2.123218 0.470852,2.13245 0.01283,0.0094 2.220304,-0.164928 2.225678,-0.149942 0.0053,0.01467 -1.877679,1.091974 -1.882579,1.10677 -0.005,0.01511 0.842968,2.060669 0.830376,2.070411 z"
       inkscape:randomized="0"
       inkscape:rounded="0.00713717"
       inkscape:flatsided="false"
       sodipodi:arg2="1.5406578"
       sodipodi:arg1="0.94812554"
       sodipodi:r2="0.86467147"
       sodipodi:r1="2.8470271"
       sodipodi:cy="56.517174"
       sodipodi:cx="19.936531"
       sodipodi:sides="5"
       id="path1083-11"
       style="display:inline;opacity:0.9977;fill:#ffffe0;fill-opacity:1;stroke:#ffe6ff;stroke-width:0"
       sodipodi:type="star" />
    <path
       inkscape:transform-center-y="-0.13054364"
       inkscape:transform-center-x="-0.0028145655"
       d="m 59.589734,70.279902 c -0.007,0.0054 -0.91747,-0.820879 -0.926304,-0.820929 -0.009,-5.1e-5 -0.963128,0.815298 -0.970585,0.810216 -0.0073,-0.005 0.497189,-1.126232 0.494507,-1.134648 -0.0027,-0.0086 -1.073017,-0.664049 -1.070489,-0.672711 0.0025,-0.0085 1.22475,0.12483 1.231926,0.119678 0.0073,-0.0053 0.299967,-1.225702 0.308987,-1.225974 0.0088,-2.66e-4 0.259748,1.203381 0.266865,1.208613 0.0073,0.0053 1.258407,-0.09348 1.261453,-0.08498 0.003,0.0083 -1.064216,0.618901 -1.066994,0.627287 -0.0028,0.0086 0.477771,1.16793 0.470634,1.173451 z"
       inkscape:randomized="0"
       inkscape:rounded="0.00713717"
       inkscape:flatsided="false"
       sodipodi:arg2="1.5406578"
       sodipodi:arg1="0.94812554"
       sodipodi:r2="0.49007174"
       sodipodi:r1="1.6136158"
       sodipodi:cy="68.969127"
       sodipodi:cx="58.648661"
       sodipodi:sides="5"
       id="path1083-67"
       style="display:inline;opacity:0.9977;fill:#ffffe0;fill-opacity:1;stroke:#ffe6ff;stroke-width:0"
       sodipodi:type="star" />
    <path
       inkscape:transform-center-y="-0.06401724"
       inkscape:transform-center-x="-0.0013858855"
       d="m 111.11593,84.821102 c -0.003,0.0027 -0.44994,-0.402572 -0.45428,-0.402596 -0.004,-2.5e-5 -0.47233,0.399834 -0.47599,0.397342 -0.004,-0.0024 0.24383,-0.552321 0.24252,-0.556449 -0.001,-0.0042 -0.52623,-0.32566 -0.52499,-0.329908 0.001,-0.0042 0.60064,0.06122 0.60416,0.05869 0.004,-0.0026 0.14711,-0.601103 0.15153,-0.601236 0.004,-1.3e-4 0.12739,0.590156 0.13088,0.592722 0.004,0.0026 0.61714,-0.04584 0.61863,-0.04168 0.001,0.0041 -0.52191,0.303519 -0.52327,0.307631 -0.001,0.0042 0.23431,0.572771 0.23081,0.575479 z"
       inkscape:randomized="0"
       inkscape:rounded="0.00713717"
       inkscape:flatsided="false"
       sodipodi:arg2="1.5406578"
       sodipodi:arg1="0.94812554"
       sodipodi:r2="0.24033859"
       sodipodi:r1="0.7913416"
       sodipodi:cy="84.178276"
       sodipodi:cx="110.65441"
       sodipodi:sides="5"
       id="path1083-14"
       style="display:inline;opacity:0.9977;fill:#ffffe0;fill-opacity:1;stroke:#ffe6ff;stroke-width:0"
       sodipodi:type="star" />
  </g>
</svg>
